<svg width="1052" height="246" viewBox="0 0 1052 246" fill="none" xmlns="http://www.w3.org/2000/svg">
<path fill-rule="evenodd" clip-rule="evenodd" d="M223.806 22.524C202.795 1.50613 164.501 4.01705 124.602 25.5369C118.645 28.744 119.09 41.9171 124.731 45.3644C155.718 64.539 181.808 90.6771 200.93 121.703C204.359 127.348 217.682 127.542 220.794 121.76C220.061 120.397 219.307 119.037 218.532 117.678C219.304 119.036 220.058 120.398 220.794 121.76C242.307 81.8485 244.817 43.5419 223.806 22.524ZM179.403 66.9413C167.991 55.4657 155.487 45.1304 142.07 36.0821C157.517 28.9369 172.231 25.1067 184.695 25.1067C195.839 25.1067 205.19 28.1628 211.672 34.6474C225.427 48.4052 223.791 75.0326 210.252 104.286C201.195 90.8733 190.864 78.367 179.403 66.9413Z" fill="#FFC750"/>
<path fill-rule="evenodd" clip-rule="evenodd" d="M233.085 150.539C229.903 140.58 225.787 130.944 220.794 121.759C217.639 115.891 204.348 116.068 200.93 121.702C191.454 137.205 180.153 151.516 167.269 164.326C154.488 177.221 140.206 188.535 124.731 198.027C119.09 201.473 118.836 214.755 124.602 217.853C145.842 229.317 166.624 235.385 184.595 235.385C200.371 235.385 213.981 230.708 223.806 220.88C239.18 205.501 242.465 180.523 233.085 150.539ZM211.672 208.743C197.918 222.501 171.314 220.852 142.07 207.309C155.487 198.26 167.991 187.925 179.403 176.449C190.869 165.045 201.205 152.558 210.267 139.162C223.791 168.401 225.426 194.999 211.672 208.743Z" fill="#FF6895"/>
<path fill-rule="evenodd" clip-rule="evenodd" d="M124.602 25.5368C115.418 20.535 105.78 16.4181 95.817 13.2415C65.8562 3.85894 40.8867 7.14403 25.5121 22.5239C15.6877 32.3513 11.0122 45.9664 11.0122 61.748C11.0122 79.7244 17.0789 100.527 28.524 121.774C31.6361 127.542 44.9146 127.281 48.3591 121.631C67.5315 90.6061 93.6835 64.4901 124.731 45.3643C130.337 41.9552 130.453 28.6784 124.602 25.5368ZM39.08 104.286C25.5409 75.0325 23.8916 48.405 37.6458 34.6472C48.2731 24.0157 67.1186 22.2224 90.6971 29.6259C96.3435 31.4122 101.871 33.5541 107.247 36.0386C80.4238 54.2815 57.2943 77.438 39.08 104.286Z" fill="#5FC5A6"/>
<path fill-rule="evenodd" clip-rule="evenodd" d="M124.731 198.027C109.203 188.547 94.8729 177.232 82.0484 164.327C69.147 151.498 57.8358 137.163 48.359 121.631C44.941 116.029 31.6645 115.921 28.5238 121.774C23.5346 130.954 19.424 140.585 16.2468 150.539C6.85292 180.524 10.1516 205.501 25.5119 220.88C35.1501 230.507 48.5451 235.4 64.5798 235.4C75.1976 235.239 85.7297 233.469 95.8169 230.149C105.777 226.966 115.415 222.849 124.601 217.854C129.234 215.372 130.331 201.446 124.731 198.027ZM90.697 213.779C67.1185 221.167 48.273 219.374 37.6456 208.743C27.0179 198.112 25.2249 179.261 32.6113 155.675C34.3951 150.031 36.5364 144.506 39.0221 139.133C48.0982 152.539 58.4488 165.036 69.9293 176.449C81.3334 187.941 93.832 198.291 107.247 207.352C101.874 209.847 96.3457 211.994 90.697 213.779Z" fill="#5666F6"/>
<path fill-rule="evenodd" clip-rule="evenodd" d="M86.3833 120.664L124.662 60.4919L162.942 120.664L124.662 142.545L86.3833 120.664Z" fill="#1F294F"/>
<path fill-rule="evenodd" clip-rule="evenodd" d="M86.3833 130.941L124.662 152.822L162.942 130.941L124.662 182.908L86.3833 130.941Z" fill="#1F294F"/>
<path fill-rule="evenodd" clip-rule="evenodd" d="M142.07 36.082C136.125 38.8571 130.337 41.9558 124.731 45.3643C119.09 41.9177 113.252 38.8039 107.248 36.0389C112.853 32.2495 118.645 28.7445 124.602 25.5371C130.453 28.6789 136.276 32.1939 142.07 36.082Z" fill="#5F9A34"/>
<path fill-rule="evenodd" clip-rule="evenodd" d="M220.794 121.76C217.681 127.542 214.167 133.366 210.266 139.162C207.475 133.176 204.359 127.347 200.93 121.703C204.348 116.069 207.46 110.255 210.252 104.286C214.125 110.067 217.639 115.892 220.794 121.76Z" fill="#FF512F"/>
<path fill-rule="evenodd" clip-rule="evenodd" d="M142.07 207.309C140.866 208.127 139.661 208.916 138.456 209.69C133.867 212.646 129.234 215.372 124.602 217.854C118.836 214.755 113.052 211.254 107.248 207.352C113.252 204.587 119.09 201.473 124.731 198.027C130.331 201.446 136.12 204.545 142.07 207.309Z" fill="#552990"/>
<path fill-rule="evenodd" clip-rule="evenodd" d="M48.3593 121.631C44.9147 127.281 41.7974 133.125 39.0227 139.133C35.136 133.352 31.6365 127.542 28.5242 121.774C31.665 115.921 35.1932 110.067 39.0801 104.286C41.8432 110.238 44.9412 116.029 48.3593 121.631Z" fill="#204FA0"/>
<path d="M1014.27 169.53V179.034C1012.61 180.008 1010.72 180.514 1008.8 180.497C1005 180.587 1001.27 179.392 998.231 177.103C995.189 174.815 993.007 171.568 992.038 167.886C986.926 173.405 980.283 177.271 972.96 178.988C965.636 180.705 957.968 180.194 950.937 177.521C943.906 174.848 937.833 170.135 933.499 163.987C929.164 157.838 926.764 150.534 926.607 143.012C926.45 135.489 928.544 128.092 932.618 121.768C936.693 115.444 942.564 110.481 949.478 107.518C956.391 104.554 964.032 103.724 971.42 105.134C978.808 106.544 985.607 110.13 990.944 115.431V105.927H1002.24V160.026C1002.24 166.789 1005.7 169.53 1009.71 169.53H1014.27ZM990.944 142.481C990.93 137.221 989.358 132.082 986.426 127.715C983.494 123.348 979.334 119.948 974.472 117.945C969.609 115.942 964.262 115.425 959.106 116.46C953.95 117.495 949.217 120.035 945.503 123.76C941.79 127.485 939.263 132.227 938.242 137.387C937.222 142.548 937.753 147.895 939.768 152.753C941.784 157.612 945.194 161.764 949.568 164.685C953.941 167.606 959.082 169.165 964.341 169.165C971.406 169.156 978.178 166.339 983.167 161.335C988.156 156.33 990.954 149.548 990.944 142.481ZM1028.51 68.8222H1040.38V180.502H1028.51V68.8222ZM909.817 141.989C909.846 149.548 907.65 156.947 903.503 163.266C899.357 169.585 893.442 174.543 886.498 177.522C879.586 180.449 871.956 181.239 864.591 179.79C857.226 178.341 850.464 174.719 845.175 169.391V179.019H833.853V66.446H845.175V114.586C850.464 109.259 857.226 105.637 864.591 104.188C871.956 102.739 879.586 103.529 886.498 106.456C893.442 109.435 899.357 114.393 903.504 120.712C907.65 127.03 909.846 134.43 909.817 141.989ZM898.496 141.989C898.425 136.73 896.801 131.609 893.828 127.27C890.855 122.932 886.666 119.57 881.788 117.606C876.91 115.643 871.561 115.166 866.412 116.236C861.264 117.305 856.547 119.874 852.854 123.618C849.162 127.363 846.658 132.115 845.658 137.279C844.659 142.443 845.208 147.787 847.236 152.64C849.265 157.493 852.683 161.637 857.059 164.552C861.436 167.466 866.577 169.021 871.835 169.021C875.348 169.029 878.828 168.335 882.069 166.979C885.311 165.624 888.249 163.635 890.712 161.129C895.729 156.026 898.526 149.146 898.496 141.989ZM736.523 142.483C736.533 133.699 739.586 125.189 745.164 118.404C750.742 111.618 758.498 106.977 767.113 105.271C775.728 103.564 784.667 104.898 792.409 109.044C800.151 113.191 806.217 119.894 809.572 128.012C812.928 136.13 813.367 145.161 810.814 153.566C808.26 161.972 802.873 169.231 795.569 174.109C788.266 178.987 779.497 181.181 770.758 180.318C762.018 179.455 753.848 175.588 747.639 169.375C744.111 165.843 741.314 161.65 739.406 157.036C737.499 152.421 736.519 147.477 736.523 142.483ZM801.166 142.483C801.162 137.21 799.596 132.055 796.664 127.672C793.733 123.288 789.568 119.873 784.696 117.857C779.824 115.841 774.464 115.315 769.294 116.346C764.123 117.377 759.374 119.919 755.647 123.649C751.921 127.38 749.383 132.132 748.356 137.304C747.329 142.477 747.858 147.838 749.876 152.711C751.895 157.583 755.312 161.747 759.696 164.676C764.08 167.606 769.233 169.17 774.506 169.17C778.008 169.168 781.475 168.477 784.711 167.136C787.946 165.794 790.885 163.828 793.361 161.35C795.836 158.872 797.8 155.93 799.139 152.693C800.478 149.456 801.167 145.987 801.166 142.483ZM679.548 119.776V123.086C679.74 151.756 659.076 176.114 631.284 179.977C603.491 183.84 577.215 166.008 569.91 138.326C562.606 110.644 576.545 81.7225 602.468 70.7748C615.044 65.5092 629.122 65.0846 641.992 69.5829C654.862 74.0813 665.613 83.1843 672.174 95.1386L662.281 100.839C657.312 91.6832 649.229 84.6116 639.496 80.9057C629.763 77.1997 619.024 77.1047 609.227 80.6378C599.39 84.3291 591.151 91.3418 585.934 100.464C580.717 109.586 578.849 120.245 580.653 130.599C582.206 140.968 587.422 150.437 595.355 157.29C603.289 164.142 613.414 167.924 623.895 167.949C634.377 167.974 644.52 164.242 652.487 157.428C660.453 150.614 665.715 141.17 667.318 130.808H623.969V119.776L679.548 119.776ZM703.289 68.8223H715.158V180.502H703.289V68.8223ZM548.986 68.8223V180.502H525.064V135.458H480.508V180.502H456.404V68.8222H480.508V113.68H525.064V68.8222L548.986 68.8223ZM446.908 90.5999H419.652V180.502H396.006V90.5998H368.57V68.8222H446.908V90.5999ZM319.283 90.4136V113.866H355.372V135.458H319.283V158.91H361.448V180.502H294.979V68.8222H361.448V90.4136L319.283 90.4136Z" fill="#1F294F"/>
</svg>
